<?xml version="1.0" encoding="utf-8" standalone="no"?>
<!DOCTYPE svg PUBLIC "-//W3C//DTD SVG 1.1//EN"
  "http://www.w3.org/Graphics/SVG/1.1/DTD/svg11.dtd">
<!-- Created with matplotlib (https://matplotlib.org/) -->
<svg height="578.665pt" version="1.1" viewBox="0 0 987.9925 578.665" width="987.9925pt" xmlns="http://www.w3.org/2000/svg" xmlns:xlink="http://www.w3.org/1999/xlink">
 <metadata>
  <rdf:RDF xmlns:cc="http://creativecommons.org/ns#" xmlns:dc="http://purl.org/dc/elements/1.1/" xmlns:rdf="http://www.w3.org/1999/02/22-rdf-syntax-ns#">
   <cc:Work>
    <dc:type rdf:resource="http://purl.org/dc/dcmitype/StillImage"/>
    <dc:date>2024-04-12T21:11:46.247669</dc:date>
    <dc:format>image/svg+xml</dc:format>
    <dc:creator>
     <cc:Agent>
      <dc:title>Matplotlib v3.3.4, https://matplotlib.org/</dc:title>
     </cc:Agent>
    </dc:creator>
   </cc:Work>
  </rdf:RDF>
 </metadata>
 <defs>
  <style type="text/css">*{stroke-linecap:butt;stroke-linejoin:round;}</style>
 </defs>
 <g id="figure_1">
  <g id="patch_1">
   <path d="M 0 578.665 
L 987.9925 578.665 
L 987.9925 0 
L 0 0 
z
" style="fill:#ffffff;"/>
  </g>
  <g id="axes_1">
   <g id="patch_2">
    <path d="M 63.5125 519.84 
L 980.7925 519.84 
L 980.7925 7.2 
L 63.5125 7.2 
z
" style="fill:#ffffff;"/>
   </g>
   <g id="PathCollection_1">
    <path clip-path="url(#pb68421e170)" d="M 440.483419 508.074007 
C 444.676648 508.074007 448.698698 506.40802 451.663759 503.442959 
C 454.62882 500.477898 456.294807 496.455848 456.294807 492.262619 
C 456.294807 488.06939 454.62882 484.04734 451.663759 481.082279 
C 448.698698 478.117218 444.676648 476.451231 440.483419 476.451231 
C 436.29019 476.451231 432.26814 478.117218 429.303079 481.082279 
C 426.338018 484.04734 424.672031 488.06939 424.672031 492.262619 
C 424.672031 496.455848 426.338018 500.477898 429.303079 503.442959 
C 432.26814 506.40802 436.29019 508.074007 440.483419 508.074007 
z
" style="fill:none;stroke:#708090;stroke-dasharray:7.4,3.2;stroke-dashoffset:0;stroke-width:2;"/>
   </g>
   <g id="PathCollection_2">
    <path clip-path="url(#pb68421e170)" d="M 540.356984 444.795675 
C 544.550213 444.795675 548.572263 443.129688 551.537324 440.164627 
C 554.502385 437.199566 556.168372 433.177516 556.168372 428.984287 
C 556.168372 424.791058 554.502385 420.769008 551.537324 417.803947 
C 548.572263 414.838886 544.550213 413.172899 540.356984 413.172899 
C 536.163755 413.172899 532.141705 414.838886 529.176644 417.803947 
C 526.211583 420.769008 524.545596 424.791058 524.545596 428.984287 
C 524.545596 433.177516 526.211583 437.199566 529.176644 440.164627 
C 532.141705 443.129688 536.163755 444.795675 540.356984 444.795675 
z
" style="fill:none;stroke:#708090;stroke-dasharray:7.4,3.2;stroke-dashoffset:0;stroke-width:2;"/>
   </g>
   <g id="PathCollection_3">
    <path clip-path="url(#pb68421e170)" d="M 557.745405 50.588769 
C 561.938634 50.588769 565.960684 48.922782 568.925745 45.957721 
C 571.890805 42.99266 573.556793 38.97061 573.556793 34.777381 
C 573.556793 30.584152 571.890805 26.562102 568.925745 23.597041 
C 565.960684 20.63198 561.938634 18.965993 557.745405 18.965993 
C 553.552175 18.965993 549.530126 20.63198 546.565065 23.597041 
C 543.600004 26.562102 541.934016 30.584152 541.934016 34.777381 
C 541.934016 38.97061 543.600004 42.99266 546.565065 45.957721 
C 549.530126 48.922782 553.552175 50.588769 557.745405 50.588769 
z
" style="fill:none;stroke:#708090;stroke-dasharray:7.4,3.2;stroke-dashoffset:0;stroke-width:2;"/>
   </g>
   <g id="patch_3">
    <path clip-path="url(#pb68421e170)" d="M 416.566494 492.262619 
L 404.011677 496.538182 
L 404.011677 492.305374 
L 366.347228 492.305374 
L 366.347228 492.219863 
L 404.011677 492.219863 
L 404.011677 487.987056 
z
" style="fill:#708090;stroke:#708090;stroke-linejoin:miter;"/>
   </g>
   <g id="patch_4">
    <path clip-path="url(#pb68421e170)" d="M 540.356984 450.362102 
L 543.495688 463.188791 
L 540.388371 463.188791 
L 540.388371 488.842168 
L 540.325597 488.842168 
L 540.325597 463.188791 
L 537.21828 463.188791 
z
" style="fill:#708090;stroke:#708090;stroke-linejoin:miter;"/>
   </g>
   <g id="patch_5">
    <path clip-path="url(#pb68421e170)" d="M 535.83725 34.777381 
L 523.282433 39.052944 
L 523.282433 34.820137 
L 491.895392 34.820137 
L 491.895392 34.734626 
L 523.282433 34.734626 
L 523.282433 30.501818 
z
" style="fill:#708090;stroke:#708090;stroke-linejoin:miter;"/>
   </g>
   <g id="matplotlib.axis_1">
    <g id="xtick_1">
     <g id="line2d_1">
      <defs>
       <path d="M 0 0 
L 0 3.5 
" id="m6020965377" style="stroke:#000000;stroke-width:0.8;"/>
      </defs>
      <g>
       <use style="stroke:#000000;stroke-width:0.8;" x="65.031633" xlink:href="#m6020965377" y="519.84"/>
      </g>
     </g>
     <g id="text_1">
      <!-- 4 -->
      <g transform="translate(58.781633 544.0275)scale(0.25 -0.25)">
       <defs>
        <path d="M 31.25 17.1875 
L 1.171875 17.1875 
L 1.171875 23.828125 
L 32.8125 69.53125 
L 38.671875 69.53125 
L 38.671875 23.828125 
L 48.046875 23.828125 
L 48.046875 17.1875 
L 38.671875 17.1875 
L 38.671875 2.34375 
L 31.25 2.34375 
z
M 31.25 23.828125 
L 31.25 54.6875 
L 9.375 23.828125 
z
" id="SimHei-52"/>
       </defs>
       <use xlink:href="#SimHei-52"/>
      </g>
     </g>
    </g>
    <g id="xtick_2">
     <g id="line2d_2">
      <g>
       <use style="stroke:#000000;stroke-width:0.8;" x="190.579797" xlink:href="#m6020965377" y="519.84"/>
      </g>
     </g>
     <g id="text_2">
      <!-- 6 -->
      <g transform="translate(184.329797 544.0275)scale(0.25 -0.25)">
       <defs>
        <path d="M 3.515625 19.53125 
Q 4.296875 30.859375 6.046875 34.765625 
Q 7.8125 38.671875 11.328125 44.53125 
L 27.34375 69.53125 
L 36.328125 69.53125 
L 19.921875 43.75 
Q 30.46875 46.484375 36.71875 42.96875 
Q 42.96875 39.453125 45.109375 34.953125 
Q 47.265625 30.46875 47.453125 25.1875 
Q 47.65625 19.921875 45.890625 14.84375 
Q 44.140625 9.765625 39.640625 5.65625 
Q 35.15625 1.5625 27.140625 1.171875 
Q 19.140625 0.78125 13.46875 4.09375 
Q 7.8125 7.421875 5.65625 13.46875 
Q 3.515625 19.53125 4.296875 30.859375 
z
M 12.5 16.015625 
Q 19.53125 8.59375 25.390625 8.203125 
Q 31.25 7.8125 35.15625 12.109375 
Q 39.0625 16.40625 39.0625 24.609375 
Q 39.0625 32.8125 34.171875 35.9375 
Q 29.296875 39.0625 23.234375 38.28125 
Q 17.1875 37.5 14.453125 32.421875 
Q 11.71875 27.34375 12.109375 21.671875 
Q 12.5 16.015625 19.53125 8.59375 
z
" id="SimHei-54"/>
       </defs>
       <use xlink:href="#SimHei-54"/>
      </g>
     </g>
    </g>
    <g id="xtick_3">
     <g id="line2d_3">
      <g>
       <use style="stroke:#000000;stroke-width:0.8;" x="316.127962" xlink:href="#m6020965377" y="519.84"/>
      </g>
     </g>
     <g id="text_3">
      <!-- 8 -->
      <g transform="translate(309.877962 544.0275)scale(0.25 -0.25)">
       <defs>
        <path d="M 2.734375 16.796875 
Q 2.734375 26.171875 5.078125 30.65625 
Q 7.421875 35.15625 12.890625 37.890625 
Q 8.203125 40.625 6.640625 43.9375 
Q 5.078125 47.265625 4.875 51.5625 
Q 4.6875 55.859375 6.046875 58.984375 
Q 7.421875 62.109375 10.15625 64.84375 
Q 12.890625 67.578125 16.203125 68.546875 
Q 19.53125 69.53125 23.4375 69.53125 
Q 27.34375 69.53125 30.46875 68.75 
Q 33.59375 67.96875 37.109375 65.421875 
Q 40.625 62.890625 42.1875 58.203125 
Q 43.75 53.515625 41.984375 47.265625 
Q 40.234375 41.015625 32.8125 37.5 
Q 39.453125 35.546875 42.1875 31.4375 
Q 44.921875 27.34375 44.921875 21.484375 
Q 44.921875 15.625 43.15625 12.109375 
Q 41.40625 8.59375 39.25 6.25 
Q 37.109375 3.90625 33.390625 2.53125 
Q 29.6875 1.171875 24.015625 1.171875 
Q 18.359375 1.171875 14.25 2.53125 
Q 10.15625 3.90625 7.421875 6.640625 
Q 4.6875 9.375 3.703125 13.078125 
Q 2.734375 16.796875 2.734375 26.171875 
z
M 10.9375 26.5625 
Q 10.546875 17.1875 12.296875 13.671875 
Q 14.0625 10.15625 18.75 9.171875 
Q 23.4375 8.203125 28.515625 9.375 
Q 33.59375 10.546875 35.546875 14.84375 
Q 37.5 19.140625 36.90625 23.4375 
Q 36.328125 27.734375 32.03125 30.65625 
Q 27.734375 33.59375 22.65625 33.203125 
Q 17.578125 32.8125 14.25 29.6875 
Q 10.9375 26.5625 10.546875 17.1875 
z
M 12.109375 56.25 
Q 12.109375 48.4375 14.84375 44.921875 
Q 17.578125 41.40625 23.4375 41.40625 
Q 29.296875 41.40625 32.21875 44.921875 
Q 35.15625 48.4375 34.953125 53.3125 
Q 34.765625 58.203125 31.4375 60.546875 
Q 28.125 62.890625 22.453125 62.5 
Q 16.796875 62.109375 14.453125 59.171875 
Q 12.109375 56.25 12.109375 48.4375 
z
" id="SimHei-56"/>
       </defs>
       <use xlink:href="#SimHei-56"/>
      </g>
     </g>
    </g>
    <g id="xtick_4">
     <g id="line2d_4">
      <g>
       <use style="stroke:#000000;stroke-width:0.8;" x="441.676127" xlink:href="#m6020965377" y="519.84"/>
      </g>
     </g>
     <g id="text_4">
      <!-- 10 -->
      <g transform="translate(429.176127 544.0275)scale(0.25 -0.25)">
       <defs>
        <path d="M 21.875 56.25 
Q 16.796875 51.171875 8.984375 46.484375 
L 8.984375 53.90625 
Q 18.75 60.546875 25 69.53125 
L 29.6875 69.53125 
L 29.6875 2.34375 
L 21.875 2.34375 
z
" id="SimHei-49"/>
        <path d="M 3.125 29.296875 
Q 3.90625 50 6.4375 56.046875 
Q 8.984375 62.109375 13.671875 66.015625 
Q 18.359375 69.921875 25.1875 69.921875 
Q 32.03125 69.921875 37.109375 64.25 
Q 42.1875 58.59375 43.75 50 
Q 45.3125 41.40625 44.71875 30.265625 
Q 44.140625 19.140625 40.8125 12.109375 
Q 37.5 5.078125 30.859375 2.34375 
Q 24.21875 -0.390625 17.578125 2.921875 
Q 10.9375 6.25 8.203125 11.71875 
Q 5.46875 17.1875 4.296875 23.234375 
Q 3.125 29.296875 3.90625 50 
z
M 12.890625 52.734375 
Q 10.546875 31.25 12.5 22.84375 
Q 14.453125 14.453125 18.9375 10.9375 
Q 23.4375 7.421875 28.125 9.5625 
Q 32.8125 11.71875 34.953125 18.15625 
Q 37.109375 24.609375 37.109375 32.21875 
Q 37.109375 39.84375 36.515625 46.09375 
Q 35.9375 52.34375 33 57.421875 
Q 30.078125 62.5 25.1875 62.6875 
Q 20.3125 62.890625 16.59375 57.8125 
Q 12.890625 52.734375 10.546875 31.25 
z
" id="SimHei-48"/>
       </defs>
       <use xlink:href="#SimHei-49"/>
       <use x="50" xlink:href="#SimHei-48"/>
      </g>
     </g>
    </g>
    <g id="xtick_5">
     <g id="line2d_5">
      <g>
       <use style="stroke:#000000;stroke-width:0.8;" x="567.224291" xlink:href="#m6020965377" y="519.84"/>
      </g>
     </g>
     <g id="text_5">
      <!-- 12 -->
      <g transform="translate(554.724291 544.0275)scale(0.25 -0.25)">
       <defs>
        <path d="M 4.6875 3.90625 
Q 5.078125 9.765625 10.15625 14.453125 
Q 15.234375 19.140625 23.046875 29.09375 
Q 30.859375 39.0625 33.203125 44.53125 
Q 35.546875 50 34.953125 53.90625 
Q 34.375 57.8125 31.25 60.34375 
Q 28.125 62.890625 24.015625 62.5 
Q 19.921875 62.109375 16.203125 59.375 
Q 12.5 56.640625 10.546875 51.171875 
L 3.125 52.34375 
Q 6.25 61.328125 11.125 65.421875 
Q 16.015625 69.53125 22.65625 69.921875 
Q 26.5625 70.3125 29.6875 69.71875 
Q 32.8125 69.140625 36.125 66.984375 
Q 39.453125 64.84375 41.59375 60.546875 
Q 43.75 56.25 43.15625 50.1875 
Q 42.578125 44.140625 37.109375 35.734375 
Q 31.640625 27.34375 16.015625 9.375 
L 44.140625 9.375 
L 44.140625 2.34375 
L 4.6875 2.34375 
z
" id="SimHei-50"/>
       </defs>
       <use xlink:href="#SimHei-49"/>
       <use x="50" xlink:href="#SimHei-50"/>
      </g>
     </g>
    </g>
    <g id="xtick_6">
     <g id="line2d_6">
      <g>
       <use style="stroke:#000000;stroke-width:0.8;" x="692.772456" xlink:href="#m6020965377" y="519.84"/>
      </g>
     </g>
     <g id="text_6">
      <!-- 14 -->
      <g transform="translate(680.272456 544.0275)scale(0.25 -0.25)">
       <use xlink:href="#SimHei-49"/>
       <use x="50" xlink:href="#SimHei-52"/>
      </g>
     </g>
    </g>
    <g id="xtick_7">
     <g id="line2d_7">
      <g>
       <use style="stroke:#000000;stroke-width:0.8;" x="818.32062" xlink:href="#m6020965377" y="519.84"/>
      </g>
     </g>
     <g id="text_7">
      <!-- 16 -->
      <g transform="translate(805.82062 544.0275)scale(0.25 -0.25)">
       <use xlink:href="#SimHei-49"/>
       <use x="50" xlink:href="#SimHei-54"/>
      </g>
     </g>
    </g>
    <g id="xtick_8">
     <g id="line2d_8">
      <g>
       <use style="stroke:#000000;stroke-width:0.8;" x="943.868785" xlink:href="#m6020965377" y="519.84"/>
      </g>
     </g>
     <g id="text_8">
      <!-- 18 -->
      <g transform="translate(931.368785 544.0275)scale(0.25 -0.25)">
       <use xlink:href="#SimHei-49"/>
       <use x="50" xlink:href="#SimHei-56"/>
      </g>
     </g>
    </g>
    <g id="text_9">
     <!-- X -->
     <g transform="translate(515.9025 568.34)scale(0.25 -0.25)">
      <defs>
       <path d="M 46.875 1.953125 
L 37.5 1.953125 
L 24.21875 29.296875 
L 10.9375 1.953125 
L 1.5625 1.953125 
L 19.921875 37.109375 
L 3.515625 68.75 
L 12.890625 68.75 
L 24.21875 44.53125 
L 35.546875 68.75 
L 44.921875 68.75 
L 28.515625 37.109375 
z
" id="SimHei-88"/>
      </defs>
      <use xlink:href="#SimHei-88"/>
     </g>
    </g>
   </g>
   <g id="matplotlib.axis_2">
    <g id="ytick_1">
     <g id="line2d_9">
      <defs>
       <path d="M 0 0 
L -3.5 0 
" id="me2348902f3" style="stroke:#000000;stroke-width:0.8;"/>
      </defs>
      <g>
       <use style="stroke:#000000;stroke-width:0.8;" x="63.5125" xlink:href="#me2348902f3" y="473.450142"/>
      </g>
     </g>
     <g id="text_10">
      <!-- 6 -->
      <g transform="translate(44.0125 482.043892)scale(0.25 -0.25)">
       <use xlink:href="#SimHei-54"/>
      </g>
     </g>
    </g>
    <g id="ytick_2">
     <g id="line2d_10">
      <g>
       <use style="stroke:#000000;stroke-width:0.8;" x="63.5125" xlink:href="#me2348902f3" y="387.938882"/>
      </g>
     </g>
     <g id="text_11">
      <!-- 7 -->
      <g transform="translate(44.0125 396.532632)scale(0.25 -0.25)">
       <defs>
        <path d="M 13.28125 2.34375 
Q 20.3125 32.03125 37.890625 61.328125 
L 4.296875 61.328125 
L 4.296875 68.359375 
L 46.09375 68.359375 
L 46.09375 61.71875 
Q 27.734375 32.03125 21.875 2.34375 
L 13.28125 2.34375 
z
" id="SimHei-55"/>
       </defs>
       <use xlink:href="#SimHei-55"/>
      </g>
     </g>
    </g>
    <g id="ytick_3">
     <g id="line2d_11">
      <g>
       <use style="stroke:#000000;stroke-width:0.8;" x="63.5125" xlink:href="#me2348902f3" y="302.427623"/>
      </g>
     </g>
     <g id="text_12">
      <!-- 8 -->
      <g transform="translate(44.0125 311.021373)scale(0.25 -0.25)">
       <use xlink:href="#SimHei-56"/>
      </g>
     </g>
    </g>
    <g id="ytick_4">
     <g id="line2d_12">
      <g>
       <use style="stroke:#000000;stroke-width:0.8;" x="63.5125" xlink:href="#me2348902f3" y="216.916364"/>
      </g>
     </g>
     <g id="text_13">
      <!-- 9 -->
      <g transform="translate(44.0125 225.510114)scale(0.25 -0.25)">
       <defs>
        <path d="M 12.5 1.171875 
Q 21.09375 15.625 26.5625 27.34375 
Q 16.796875 25.78125 10.34375 29.875 
Q 3.90625 33.984375 2.53125 41.015625 
Q 1.171875 48.046875 2.734375 53.703125 
Q 4.296875 59.375 7.609375 63.078125 
Q 10.9375 66.796875 15.625 68.359375 
Q 20.3125 69.921875 24.015625 69.921875 
Q 27.734375 69.921875 31.640625 68.359375 
Q 35.546875 66.796875 38.671875 63.671875 
Q 41.796875 60.546875 42.96875 57.21875 
Q 44.140625 53.90625 44.140625 48.625 
Q 44.140625 43.359375 40.234375 35.15625 
Q 36.328125 26.953125 21.09375 1.171875 
z
M 9.765625 50 
Q 10.9375 39.84375 14.640625 36.515625 
Q 18.359375 33.203125 22.65625 33.59375 
Q 26.953125 33.984375 29.484375 35.9375 
Q 32.03125 37.890625 34.375 42.578125 
Q 35.9375 48.4375 35.15625 52.53125 
Q 34.375 56.640625 31.046875 59.375 
Q 27.734375 62.109375 23.828125 62.109375 
Q 21.484375 62.5 17.765625 60.9375 
Q 14.0625 59.375 11.90625 54.6875 
Q 9.765625 50 10.9375 39.84375 
z
" id="SimHei-57"/>
       </defs>
       <use xlink:href="#SimHei-57"/>
      </g>
     </g>
    </g>
    <g id="ytick_5">
     <g id="line2d_13">
      <g>
       <use style="stroke:#000000;stroke-width:0.8;" x="63.5125" xlink:href="#me2348902f3" y="131.405104"/>
      </g>
     </g>
     <g id="text_14">
      <!-- 10 -->
      <g transform="translate(31.5125 139.998854)scale(0.25 -0.25)">
       <use xlink:href="#SimHei-49"/>
       <use x="50" xlink:href="#SimHei-48"/>
      </g>
     </g>
    </g>
    <g id="ytick_6">
     <g id="line2d_14">
      <g>
       <use style="stroke:#000000;stroke-width:0.8;" x="63.5125" xlink:href="#me2348902f3" y="45.893845"/>
      </g>
     </g>
     <g id="text_15">
      <!-- 11 -->
      <g transform="translate(31.5125 54.487595)scale(0.25 -0.25)">
       <use xlink:href="#SimHei-49"/>
       <use x="50" xlink:href="#SimHei-49"/>
      </g>
     </g>
    </g>
    <g id="text_16">
     <!-- Y -->
     <g transform="translate(24.3875 269.77)rotate(-90)scale(0.25 -0.25)">
      <defs>
       <path d="M 47.265625 68.75 
L 28.90625 32.03125 
L 28.90625 1.953125 
L 19.921875 1.953125 
L 19.921875 32.03125 
L 1.5625 68.75 
L 10.546875 68.75 
L 24.21875 40.234375 
L 24.609375 40.234375 
L 38.28125 68.75 
z
" id="SimHei-89"/>
      </defs>
      <use xlink:href="#SimHei-89"/>
     </g>
    </g>
   </g>
   <g id="line2d_15">
    <path clip-path="url(#pb68421e170)" d="M 105.207045 212.640801 
L 176.769499 208.365238 
L 262.456122 224.612377 
L 349.649322 216.061251 
L 440.483419 492.262619 
L 540.356984 428.984287 
L 585.742645 186.987423 
L 557.745405 34.777381 
L 684.862921 168.174946 
L 712.106873 149.362469 
L 830.122148 186.987423 
L 939.097955 205.7999 
" style="fill:none;stroke:#000000;stroke-linecap:square;stroke-width:2;"/>
    <defs>
     <path d="M 0 6 
C 1.591219 6 3.117479 5.367802 4.242641 4.242641 
C 5.367802 3.117479 6 1.591219 6 0 
C 6 -1.591219 5.367802 -3.117479 4.242641 -4.242641 
C 3.117479 -5.367802 1.591219 -6 0 -6 
C -1.591219 -6 -3.117479 -5.367802 -4.242641 -4.242641 
C -5.367802 -3.117479 -6 -1.591219 -6 0 
C -6 1.591219 -5.367802 3.117479 -4.242641 4.242641 
C -3.117479 5.367802 -1.591219 6 0 6 
z
" id="mfe6544acdc" style="stroke:#000000;"/>
    </defs>
    <g clip-path="url(#pb68421e170)">
     <use style="stroke:#000000;" x="105.207045" xlink:href="#mfe6544acdc" y="212.640801"/>
     <use style="stroke:#000000;" x="176.769499" xlink:href="#mfe6544acdc" y="208.365238"/>
     <use style="stroke:#000000;" x="262.456122" xlink:href="#mfe6544acdc" y="224.612377"/>
     <use style="stroke:#000000;" x="349.649322" xlink:href="#mfe6544acdc" y="216.061251"/>
     <use style="stroke:#000000;" x="440.483419" xlink:href="#mfe6544acdc" y="492.262619"/>
     <use style="stroke:#000000;" x="540.356984" xlink:href="#mfe6544acdc" y="428.984287"/>
     <use style="stroke:#000000;" x="585.742645" xlink:href="#mfe6544acdc" y="186.987423"/>
     <use style="stroke:#000000;" x="557.745405" xlink:href="#mfe6544acdc" y="34.777381"/>
     <use style="stroke:#000000;" x="684.862921" xlink:href="#mfe6544acdc" y="168.174946"/>
     <use style="stroke:#000000;" x="712.106873" xlink:href="#mfe6544acdc" y="149.362469"/>
     <use style="stroke:#000000;" x="830.122148" xlink:href="#mfe6544acdc" y="186.987423"/>
     <use style="stroke:#000000;" x="939.097955" xlink:href="#mfe6544acdc" y="205.7999"/>
    </g>
   </g>
   <g id="line2d_16">
    <path clip-path="url(#pb68421e170)" d="M 105.207045 212.640801 
L 176.769499 208.365238 
L 262.456122 224.612377 
L 349.649322 216.061251 
L 440.483419 205.7999 
L 540.356984 186.987423 
L 585.742645 186.987423 
L 603.947129 158.768707 
L 684.862921 168.174946 
L 712.106873 149.362469 
L 830.122148 186.987423 
L 939.097955 205.7999 
" style="fill:none;stroke:#008000;stroke-linecap:square;stroke-width:2;"/>
    <defs>
     <path d="M -5 -0 
L 5 5 
L 5 -5 
z
" id="me1a3b825fd" style="stroke:#008000;stroke-linejoin:miter;"/>
    </defs>
    <g clip-path="url(#pb68421e170)">
     <use style="fill:#008000;stroke:#008000;stroke-linejoin:miter;" x="105.207045" xlink:href="#me1a3b825fd" y="212.640801"/>
     <use style="fill:#008000;stroke:#008000;stroke-linejoin:miter;" x="176.769499" xlink:href="#me1a3b825fd" y="208.365238"/>
     <use style="fill:#008000;stroke:#008000;stroke-linejoin:miter;" x="262.456122" xlink:href="#me1a3b825fd" y="224.612377"/>
     <use style="fill:#008000;stroke:#008000;stroke-linejoin:miter;" x="349.649322" xlink:href="#me1a3b825fd" y="216.061251"/>
     <use style="fill:#008000;stroke:#008000;stroke-linejoin:miter;" x="440.483419" xlink:href="#me1a3b825fd" y="205.7999"/>
     <use style="fill:#008000;stroke:#008000;stroke-linejoin:miter;" x="540.356984" xlink:href="#me1a3b825fd" y="186.987423"/>
     <use style="fill:#008000;stroke:#008000;stroke-linejoin:miter;" x="585.742645" xlink:href="#me1a3b825fd" y="186.987423"/>
     <use style="fill:#008000;stroke:#008000;stroke-linejoin:miter;" x="603.947129" xlink:href="#me1a3b825fd" y="158.768707"/>
     <use style="fill:#008000;stroke:#008000;stroke-linejoin:miter;" x="684.862921" xlink:href="#me1a3b825fd" y="168.174946"/>
     <use style="fill:#008000;stroke:#008000;stroke-linejoin:miter;" x="712.106873" xlink:href="#me1a3b825fd" y="149.362469"/>
     <use style="fill:#008000;stroke:#008000;stroke-linejoin:miter;" x="830.122148" xlink:href="#me1a3b825fd" y="186.987423"/>
     <use style="fill:#008000;stroke:#008000;stroke-linejoin:miter;" x="939.097955" xlink:href="#me1a3b825fd" y="205.7999"/>
    </g>
   </g>
   <g id="line2d_17">
    <path clip-path="url(#pb68421e170)" d="M 105.207045 212.640801 
L 105.207045 212.640801 
L 143.349833 210.361926 
L 206.833485 217.957416 
L 282.954326 216.94676 
L 366.917333 363.690113 
L 459.360666 398.491908 
L 526.722261 285.760017 
L 543.257597 151.986272 
L 618.733235 160.614835 
L 668.501384 154.617324 
L 754.645251 171.870587 
" style="fill:none;stroke:#ffa500;stroke-linecap:square;stroke-width:2;"/>
    <defs>
     <path d="M -2.5 -4.330127 
L -5 -0 
L -2.5 4.330127 
L 2.5 4.330127 
L 5 0 
L 2.5 -4.330127 
z
" id="mbbbc9a24c0" style="stroke:#ffa500;stroke-linejoin:miter;"/>
    </defs>
    <g clip-path="url(#pb68421e170)">
     <use style="fill:#ffa500;stroke:#ffa500;stroke-linejoin:miter;" x="105.207045" xlink:href="#mbbbc9a24c0" y="212.640801"/>
     <use style="fill:#ffa500;stroke:#ffa500;stroke-linejoin:miter;" x="105.207045" xlink:href="#mbbbc9a24c0" y="212.640801"/>
     <use style="fill:#ffa500;stroke:#ffa500;stroke-linejoin:miter;" x="143.349833" xlink:href="#mbbbc9a24c0" y="210.361926"/>
     <use style="fill:#ffa500;stroke:#ffa500;stroke-linejoin:miter;" x="206.833485" xlink:href="#mbbbc9a24c0" y="217.957416"/>
     <use style="fill:#ffa500;stroke:#ffa500;stroke-linejoin:miter;" x="282.954326" xlink:href="#mbbbc9a24c0" y="216.94676"/>
     <use style="fill:#ffa500;stroke:#ffa500;stroke-linejoin:miter;" x="366.917333" xlink:href="#mbbbc9a24c0" y="363.690113"/>
     <use style="fill:#ffa500;stroke:#ffa500;stroke-linejoin:miter;" x="459.360666" xlink:href="#mbbbc9a24c0" y="398.491908"/>
     <use style="fill:#ffa500;stroke:#ffa500;stroke-linejoin:miter;" x="526.722261" xlink:href="#mbbbc9a24c0" y="285.760017"/>
     <use style="fill:#ffa500;stroke:#ffa500;stroke-linejoin:miter;" x="543.257597" xlink:href="#mbbbc9a24c0" y="151.986272"/>
     <use style="fill:#ffa500;stroke:#ffa500;stroke-linejoin:miter;" x="618.733235" xlink:href="#mbbbc9a24c0" y="160.614835"/>
     <use style="fill:#ffa500;stroke:#ffa500;stroke-linejoin:miter;" x="668.501384" xlink:href="#mbbbc9a24c0" y="154.617324"/>
     <use style="fill:#ffa500;stroke:#ffa500;stroke-linejoin:miter;" x="754.645251" xlink:href="#mbbbc9a24c0" y="171.870587"/>
    </g>
   </g>
   <g id="line2d_18">
    <path clip-path="url(#pb68421e170)" d="M 105.207045 212.640801 
L 176.769499 208.365238 
L 262.456122 224.612377 
L 349.649322 216.061251 
L 416.692042 206.48399 
L 483.734762 196.906729 
L 585.742645 186.987423 
L 635.302783 177.581184 
L 684.862921 168.174946 
L 712.106873 149.362469 
L 830.122148 186.987423 
L 939.097955 205.7999 
" style="fill:none;stroke:#ff0000;stroke-linecap:square;stroke-width:2;"/>
    <defs>
     <path d="M 0 -5 
L -5 5 
L 5 5 
z
" id="mbb71a496ec" style="stroke:#ff0000;stroke-linejoin:miter;"/>
    </defs>
    <g clip-path="url(#pb68421e170)">
     <use style="fill:#ff0000;stroke:#ff0000;stroke-linejoin:miter;" x="105.207045" xlink:href="#mbb71a496ec" y="212.640801"/>
     <use style="fill:#ff0000;stroke:#ff0000;stroke-linejoin:miter;" x="176.769499" xlink:href="#mbb71a496ec" y="208.365238"/>
     <use style="fill:#ff0000;stroke:#ff0000;stroke-linejoin:miter;" x="262.456122" xlink:href="#mbb71a496ec" y="224.612377"/>
     <use style="fill:#ff0000;stroke:#ff0000;stroke-linejoin:miter;" x="349.649322" xlink:href="#mbb71a496ec" y="216.061251"/>
     <use style="fill:#ff0000;stroke:#ff0000;stroke-linejoin:miter;" x="416.692042" xlink:href="#mbb71a496ec" y="206.48399"/>
     <use style="fill:#ff0000;stroke:#ff0000;stroke-linejoin:miter;" x="483.734762" xlink:href="#mbb71a496ec" y="196.906729"/>
     <use style="fill:#ff0000;stroke:#ff0000;stroke-linejoin:miter;" x="585.742645" xlink:href="#mbb71a496ec" y="186.987423"/>
     <use style="fill:#ff0000;stroke:#ff0000;stroke-linejoin:miter;" x="635.302783" xlink:href="#mbb71a496ec" y="177.581184"/>
     <use style="fill:#ff0000;stroke:#ff0000;stroke-linejoin:miter;" x="684.862921" xlink:href="#mbb71a496ec" y="168.174946"/>
     <use style="fill:#ff0000;stroke:#ff0000;stroke-linejoin:miter;" x="712.106873" xlink:href="#mbb71a496ec" y="149.362469"/>
     <use style="fill:#ff0000;stroke:#ff0000;stroke-linejoin:miter;" x="830.122148" xlink:href="#mbb71a496ec" y="186.987423"/>
     <use style="fill:#ff0000;stroke:#ff0000;stroke-linejoin:miter;" x="939.097955" xlink:href="#mbb71a496ec" y="205.7999"/>
    </g>
   </g>
   <g id="line2d_19">
    <path clip-path="url(#pb68421e170)" d="M 105.207045 212.640801 
L 176.769499 208.365238 
L 262.456122 224.612377 
L 349.649322 216.061251 
L 406.102216 387.750636 
L 540.356984 428.984287 
L 574.48269 246.69343 
L 572.611856 58.585878 
L 684.775622 168.095239 
L 712.106873 149.362469 
L 830.122148 186.987423 
L 939.097955 205.7999 
" style="fill:none;stroke:#0000ff;stroke-linecap:square;stroke-width:2;"/>
    <defs>
     <path d="M -6 6 
L 6 -6 
M -6 -6 
L 6 6 
" id="m4e88443d8b" style="stroke:#0000ff;"/>
    </defs>
    <g clip-path="url(#pb68421e170)">
     <use style="fill:#0000ff;stroke:#0000ff;" x="105.207045" xlink:href="#m4e88443d8b" y="212.640801"/>
     <use style="fill:#0000ff;stroke:#0000ff;" x="176.769499" xlink:href="#m4e88443d8b" y="208.365238"/>
     <use style="fill:#0000ff;stroke:#0000ff;" x="262.456122" xlink:href="#m4e88443d8b" y="224.612377"/>
     <use style="fill:#0000ff;stroke:#0000ff;" x="349.649322" xlink:href="#m4e88443d8b" y="216.061251"/>
     <use style="fill:#0000ff;stroke:#0000ff;" x="406.102216" xlink:href="#m4e88443d8b" y="387.750636"/>
     <use style="fill:#0000ff;stroke:#0000ff;" x="540.356984" xlink:href="#m4e88443d8b" y="428.984287"/>
     <use style="fill:#0000ff;stroke:#0000ff;" x="574.48269" xlink:href="#m4e88443d8b" y="246.69343"/>
     <use style="fill:#0000ff;stroke:#0000ff;" x="572.611856" xlink:href="#m4e88443d8b" y="58.585878"/>
     <use style="fill:#0000ff;stroke:#0000ff;" x="684.775622" xlink:href="#m4e88443d8b" y="168.095239"/>
     <use style="fill:#0000ff;stroke:#0000ff;" x="712.106873" xlink:href="#m4e88443d8b" y="149.362469"/>
     <use style="fill:#0000ff;stroke:#0000ff;" x="830.122148" xlink:href="#m4e88443d8b" y="186.987423"/>
     <use style="fill:#0000ff;stroke:#0000ff;" x="939.097955" xlink:href="#m4e88443d8b" y="205.7999"/>
    </g>
   </g>
   <g id="line2d_20">
    <path clip-path="url(#pb68421e170)" d="M 105.207045 212.640801 
L 176.769499 208.365238 
L 262.456122 224.612377 
L 349.649322 304.137848 
L 440.483419 492.262619 
L 540.356984 375.112193 
L 585.742645 186.987423 
L 557.745405 34.777381 
L 684.862921 168.174946 
L 712.106873 149.362469 
L 830.122148 186.987423 
L 939.097955 205.7999 
" style="fill:none;stroke:#800080;stroke-linecap:square;stroke-width:2;"/>
    <defs>
     <path d="M 0 5.656854 
L 3.394113 0 
L 0 -5.656854 
L -3.394113 0 
z
" id="mf060f4b829" style="stroke:#800080;stroke-linejoin:miter;"/>
    </defs>
    <g clip-path="url(#pb68421e170)">
     <use style="fill:#800080;stroke:#800080;stroke-linejoin:miter;" x="105.207045" xlink:href="#mf060f4b829" y="212.640801"/>
     <use style="fill:#800080;stroke:#800080;stroke-linejoin:miter;" x="176.769499" xlink:href="#mf060f4b829" y="208.365238"/>
     <use style="fill:#800080;stroke:#800080;stroke-linejoin:miter;" x="262.456122" xlink:href="#mf060f4b829" y="224.612377"/>
     <use style="fill:#800080;stroke:#800080;stroke-linejoin:miter;" x="349.649322" xlink:href="#mf060f4b829" y="304.137848"/>
     <use style="fill:#800080;stroke:#800080;stroke-linejoin:miter;" x="440.483419" xlink:href="#mf060f4b829" y="492.262619"/>
     <use style="fill:#800080;stroke:#800080;stroke-linejoin:miter;" x="540.356984" xlink:href="#mf060f4b829" y="375.112193"/>
     <use style="fill:#800080;stroke:#800080;stroke-linejoin:miter;" x="585.742645" xlink:href="#mf060f4b829" y="186.987423"/>
     <use style="fill:#800080;stroke:#800080;stroke-linejoin:miter;" x="557.745405" xlink:href="#mf060f4b829" y="34.777381"/>
     <use style="fill:#800080;stroke:#800080;stroke-linejoin:miter;" x="684.862921" xlink:href="#mf060f4b829" y="168.174946"/>
     <use style="fill:#800080;stroke:#800080;stroke-linejoin:miter;" x="712.106873" xlink:href="#mf060f4b829" y="149.362469"/>
     <use style="fill:#800080;stroke:#800080;stroke-linejoin:miter;" x="830.122148" xlink:href="#mf060f4b829" y="186.987423"/>
     <use style="fill:#800080;stroke:#800080;stroke-linejoin:miter;" x="939.097955" xlink:href="#mf060f4b829" y="205.7999"/>
    </g>
   </g>
   <g id="patch_6">
    <path d="M 63.5125 519.84 
L 63.5125 7.2 
" style="fill:none;stroke:#000000;stroke-linecap:square;stroke-linejoin:miter;stroke-width:0.8;"/>
   </g>
   <g id="patch_7">
    <path d="M 980.7925 519.84 
L 980.7925 7.2 
" style="fill:none;stroke:#000000;stroke-linecap:square;stroke-linejoin:miter;stroke-width:0.8;"/>
   </g>
   <g id="patch_8">
    <path d="M 63.5125 519.84 
L 980.7925 519.84 
" style="fill:none;stroke:#000000;stroke-linecap:square;stroke-linejoin:miter;stroke-width:0.8;"/>
   </g>
   <g id="patch_9">
    <path d="M 63.5125 7.2 
L 980.7925 7.2 
" style="fill:none;stroke:#000000;stroke-linecap:square;stroke-linejoin:miter;stroke-width:0.8;"/>
   </g>
   <g id="text_17">
    <!-- $error_{1}$ -->
    <g transform="translate(307.547228 496.838745)scale(0.2 -0.2)">
     <defs>
      <path d="M 48.09375 32.234375 
Q 48.25 33.015625 48.3125 33.84375 
Q 48.390625 34.671875 48.390625 35.5 
Q 48.390625 41.453125 44.890625 44.921875 
Q 41.40625 48.390625 35.40625 48.390625 
Q 28.71875 48.390625 23.578125 44.15625 
Q 18.453125 39.9375 15.828125 32.171875 
z
M 55.90625 25.203125 
L 14.109375 25.203125 
Q 13.8125 23.34375 13.71875 22.265625 
Q 13.625 21.1875 13.625 20.40625 
Q 13.625 13.625 17.796875 9.90625 
Q 21.96875 6.203125 29.59375 6.203125 
Q 35.453125 6.203125 40.671875 7.515625 
Q 45.90625 8.84375 50.390625 11.375 
L 48.6875 2.484375 
Q 43.84375 0.53125 38.6875 -0.4375 
Q 33.546875 -1.421875 28.21875 -1.421875 
Q 16.84375 -1.421875 10.71875 4.015625 
Q 4.59375 9.46875 4.59375 19.484375 
Q 4.59375 28.03125 7.640625 35.375 
Q 10.6875 42.71875 16.609375 48.484375 
Q 20.40625 52.09375 25.65625 54.046875 
Q 30.90625 56 36.8125 56 
Q 46.09375 56 51.578125 50.4375 
Q 57.078125 44.875 57.078125 35.5 
Q 57.078125 33.25 56.78125 30.6875 
Q 56.5 28.125 55.90625 25.203125 
z
" id="DejaVuSans-Oblique-101"/>
      <path d="M 44.578125 46.390625 
Q 43.21875 47.125 41.453125 47.515625 
Q 39.703125 47.90625 37.703125 47.90625 
Q 30.515625 47.90625 25.140625 42.453125 
Q 19.78125 37.015625 18.015625 27.875 
L 12.5 0 
L 3.515625 0 
L 14.203125 54.6875 
L 23.1875 54.6875 
L 21.484375 46.1875 
Q 25.046875 50.921875 30 53.453125 
Q 34.96875 56 40.578125 56 
Q 42.046875 56 43.453125 55.828125 
Q 44.875 55.671875 46.296875 55.28125 
z
" id="DejaVuSans-Oblique-114"/>
      <path d="M 25.390625 -1.421875 
Q 15.765625 -1.421875 10.171875 4.515625 
Q 4.59375 10.453125 4.59375 20.703125 
Q 4.59375 26.65625 6.515625 32.828125 
Q 8.453125 39.015625 11.53125 43.21875 
Q 16.359375 49.75 22.3125 52.875 
Q 28.265625 56 35.796875 56 
Q 45.125 56 50.859375 50.1875 
Q 56.59375 44.390625 56.59375 35.015625 
Q 56.59375 28.515625 54.6875 22.0625 
Q 52.78125 15.625 49.703125 11.375 
Q 44.921875 4.828125 38.96875 1.703125 
Q 33.015625 -1.421875 25.390625 -1.421875 
z
M 13.921875 21 
Q 13.921875 13.578125 17.015625 9.890625 
Q 20.125 6.203125 26.421875 6.203125 
Q 35.453125 6.203125 41.375 14.078125 
Q 47.3125 21.96875 47.3125 34.078125 
Q 47.3125 41.15625 44.140625 44.765625 
Q 40.96875 48.390625 34.8125 48.390625 
Q 29.734375 48.390625 25.78125 46.015625 
Q 21.828125 43.65625 18.703125 38.8125 
Q 16.40625 35.203125 15.15625 30.5625 
Q 13.921875 25.921875 13.921875 21 
z
" id="DejaVuSans-Oblique-111"/>
      <path d="M 12.40625 8.296875 
L 28.515625 8.296875 
L 28.515625 63.921875 
L 10.984375 60.40625 
L 10.984375 69.390625 
L 28.421875 72.90625 
L 38.28125 72.90625 
L 38.28125 8.296875 
L 54.390625 8.296875 
L 54.390625 0 
L 12.40625 0 
z
" id="DejaVuSans-49"/>
     </defs>
     <use xlink:href="#DejaVuSans-Oblique-101"/>
     <use transform="translate(61.523438 0)" xlink:href="#DejaVuSans-Oblique-114"/>
     <use transform="translate(102.636719 0)" xlink:href="#DejaVuSans-Oblique-114"/>
     <use transform="translate(143.75 0)" xlink:href="#DejaVuSans-Oblique-111"/>
     <use transform="translate(204.931641 0)" xlink:href="#DejaVuSans-Oblique-114"/>
     <use transform="translate(246.044922 -16.40625)scale(0.7)" xlink:href="#DejaVuSans-49"/>
    </g>
   </g>
   <g id="text_18">
    <!-- $error_{2}$ -->
    <g transform="translate(510.956984 507.955209)scale(0.2 -0.2)">
     <defs>
      <path d="M 19.1875 8.296875 
L 53.609375 8.296875 
L 53.609375 0 
L 7.328125 0 
L 7.328125 8.296875 
Q 12.9375 14.109375 22.625 23.890625 
Q 32.328125 33.6875 34.8125 36.53125 
Q 39.546875 41.84375 41.421875 45.53125 
Q 43.3125 49.21875 43.3125 52.78125 
Q 43.3125 58.59375 39.234375 62.25 
Q 35.15625 65.921875 28.609375 65.921875 
Q 23.96875 65.921875 18.8125 64.3125 
Q 13.671875 62.703125 7.8125 59.421875 
L 7.8125 69.390625 
Q 13.765625 71.78125 18.9375 73 
Q 24.125 74.21875 28.421875 74.21875 
Q 39.75 74.21875 46.484375 68.546875 
Q 53.21875 62.890625 53.21875 53.421875 
Q 53.21875 48.921875 51.53125 44.890625 
Q 49.859375 40.875 45.40625 35.40625 
Q 44.1875 33.984375 37.640625 27.21875 
Q 31.109375 20.453125 19.1875 8.296875 
z
" id="DejaVuSans-50"/>
     </defs>
     <use xlink:href="#DejaVuSans-Oblique-101"/>
     <use transform="translate(61.523438 0)" xlink:href="#DejaVuSans-Oblique-114"/>
     <use transform="translate(102.636719 0)" xlink:href="#DejaVuSans-Oblique-114"/>
     <use transform="translate(143.75 0)" xlink:href="#DejaVuSans-Oblique-111"/>
     <use transform="translate(204.931641 0)" xlink:href="#DejaVuSans-Oblique-114"/>
     <use transform="translate(246.044922 -16.40625)scale(0.7)" xlink:href="#DejaVuSans-50"/>
    </g>
   </g>
   <g id="text_19">
    <!-- $error_{3}$ -->
    <g transform="translate(426.817984 39.353507)scale(0.2 -0.2)">
     <defs>
      <path d="M 40.578125 39.3125 
Q 47.65625 37.796875 51.625 33 
Q 55.609375 28.21875 55.609375 21.1875 
Q 55.609375 10.40625 48.1875 4.484375 
Q 40.765625 -1.421875 27.09375 -1.421875 
Q 22.515625 -1.421875 17.65625 -0.515625 
Q 12.796875 0.390625 7.625 2.203125 
L 7.625 11.71875 
Q 11.71875 9.328125 16.59375 8.109375 
Q 21.484375 6.890625 26.8125 6.890625 
Q 36.078125 6.890625 40.9375 10.546875 
Q 45.796875 14.203125 45.796875 21.1875 
Q 45.796875 27.640625 41.28125 31.265625 
Q 36.765625 34.90625 28.71875 34.90625 
L 20.21875 34.90625 
L 20.21875 43.015625 
L 29.109375 43.015625 
Q 36.375 43.015625 40.234375 45.921875 
Q 44.09375 48.828125 44.09375 54.296875 
Q 44.09375 59.90625 40.109375 62.90625 
Q 36.140625 65.921875 28.71875 65.921875 
Q 24.65625 65.921875 20.015625 65.03125 
Q 15.375 64.15625 9.8125 62.3125 
L 9.8125 71.09375 
Q 15.4375 72.65625 20.34375 73.4375 
Q 25.25 74.21875 29.59375 74.21875 
Q 40.828125 74.21875 47.359375 69.109375 
Q 53.90625 64.015625 53.90625 55.328125 
Q 53.90625 49.265625 50.4375 45.09375 
Q 46.96875 40.921875 40.578125 39.3125 
z
" id="DejaVuSans-51"/>
     </defs>
     <use xlink:href="#DejaVuSans-Oblique-101"/>
     <use transform="translate(61.523438 0)" xlink:href="#DejaVuSans-Oblique-114"/>
     <use transform="translate(102.636719 0)" xlink:href="#DejaVuSans-Oblique-114"/>
     <use transform="translate(143.75 0)" xlink:href="#DejaVuSans-Oblique-111"/>
     <use transform="translate(204.931641 0)" xlink:href="#DejaVuSans-Oblique-114"/>
     <use transform="translate(246.044922 -16.40625)scale(0.7)" xlink:href="#DejaVuSans-51"/>
    </g>
   </g>
   <g id="legend_1">
    <g id="line2d_21">
     <path d="M 628.536719 323.578125 
L 674.536719 323.578125 
" style="fill:none;stroke:#000000;stroke-linecap:square;stroke-width:2;"/>
    </g>
    <g id="line2d_22">
     <g>
      <use style="stroke:#000000;" x="651.536719" xlink:href="#mfe6544acdc" y="323.578125"/>
     </g>
    </g>
    <g id="text_20">
     <!-- Observation -->
     <g transform="translate(692.936719 331.628125)scale(0.23 -0.23)">
      <defs>
       <path d="M 4.828125 34.859375 
Q 4.828125 52.6875 14.390625 62.765625 
Q 23.96875 72.859375 39.109375 72.859375 
Q 49.03125 72.859375 56.984375 68.109375 
Q 64.9375 63.375 69.109375 54.90625 
Q 73.296875 46.4375 73.296875 35.6875 
Q 73.296875 24.8125 68.890625 16.21875 
Q 64.5 7.625 56.4375 3.203125 
Q 48.390625 -1.21875 39.0625 -1.21875 
Q 28.953125 -1.21875 20.984375 3.65625 
Q 13.03125 8.546875 8.921875 16.984375 
Q 4.828125 25.4375 4.828125 34.859375 
z
M 14.59375 34.71875 
Q 14.59375 21.78125 21.546875 14.328125 
Q 28.515625 6.890625 39.015625 6.890625 
Q 49.703125 6.890625 56.609375 14.40625 
Q 63.53125 21.921875 63.53125 35.75 
Q 63.53125 44.484375 60.578125 51 
Q 57.625 57.515625 51.921875 61.109375 
Q 46.234375 64.703125 39.15625 64.703125 
Q 29.109375 64.703125 21.84375 57.78125 
Q 14.59375 50.875 14.59375 34.71875 
z
" id="ArialMT-79"/>
       <path d="M 14.703125 0 
L 6.546875 0 
L 6.546875 71.578125 
L 15.328125 71.578125 
L 15.328125 46.046875 
Q 20.90625 53.03125 29.546875 53.03125 
Q 34.328125 53.03125 38.59375 51.09375 
Q 42.875 49.171875 45.625 45.671875 
Q 48.390625 42.1875 49.953125 37.25 
Q 51.515625 32.328125 51.515625 26.703125 
Q 51.515625 13.375 44.921875 6.09375 
Q 38.328125 -1.171875 29.109375 -1.171875 
Q 19.921875 -1.171875 14.703125 6.5 
z
M 14.59375 26.3125 
Q 14.59375 17 17.140625 12.84375 
Q 21.296875 6.0625 28.375 6.0625 
Q 34.125 6.0625 38.328125 11.0625 
Q 42.53125 16.0625 42.53125 25.984375 
Q 42.53125 36.140625 38.5 40.96875 
Q 34.46875 45.796875 28.765625 45.796875 
Q 23 45.796875 18.796875 40.796875 
Q 14.59375 35.796875 14.59375 26.3125 
z
" id="ArialMT-98"/>
       <path d="M 3.078125 15.484375 
L 11.765625 16.84375 
Q 12.5 11.625 15.84375 8.84375 
Q 19.1875 6.0625 25.203125 6.0625 
Q 31.25 6.0625 34.171875 8.515625 
Q 37.109375 10.984375 37.109375 14.3125 
Q 37.109375 17.28125 34.515625 19 
Q 32.71875 20.171875 25.53125 21.96875 
Q 15.875 24.421875 12.140625 26.203125 
Q 8.40625 27.984375 6.46875 31.125 
Q 4.546875 34.28125 4.546875 38.09375 
Q 4.546875 41.546875 6.125 44.5 
Q 7.71875 47.46875 10.453125 49.421875 
Q 12.5 50.921875 16.03125 51.96875 
Q 19.578125 53.03125 23.640625 53.03125 
Q 29.734375 53.03125 34.34375 51.265625 
Q 38.96875 49.515625 41.15625 46.5 
Q 43.359375 43.5 44.1875 38.484375 
L 35.59375 37.3125 
Q 35.015625 41.3125 32.203125 43.546875 
Q 29.390625 45.796875 24.265625 45.796875 
Q 18.21875 45.796875 15.625 43.796875 
Q 13.03125 41.796875 13.03125 39.109375 
Q 13.03125 37.40625 14.109375 36.03125 
Q 15.1875 34.625 17.484375 33.6875 
Q 18.796875 33.203125 25.25 31.453125 
Q 34.578125 28.953125 38.25 27.359375 
Q 41.9375 25.78125 44.03125 22.75 
Q 46.140625 19.734375 46.140625 15.234375 
Q 46.140625 10.84375 43.578125 6.953125 
Q 41.015625 3.078125 36.171875 0.953125 
Q 31.34375 -1.171875 25.25 -1.171875 
Q 15.140625 -1.171875 9.84375 3.03125 
Q 4.546875 7.234375 3.078125 15.484375 
z
" id="ArialMT-115"/>
       <path d="M 42.09375 16.703125 
L 51.171875 15.578125 
Q 49.03125 7.625 43.21875 3.21875 
Q 37.40625 -1.171875 28.375 -1.171875 
Q 17 -1.171875 10.328125 5.828125 
Q 3.65625 12.84375 3.65625 25.484375 
Q 3.65625 38.578125 10.390625 45.796875 
Q 17.140625 53.03125 27.875 53.03125 
Q 38.28125 53.03125 44.875 45.953125 
Q 51.46875 38.875 51.46875 26.03125 
Q 51.46875 25.25 51.421875 23.6875 
L 12.75 23.6875 
Q 13.234375 15.140625 17.578125 10.59375 
Q 21.921875 6.0625 28.421875 6.0625 
Q 33.25 6.0625 36.671875 8.59375 
Q 40.09375 11.140625 42.09375 16.703125 
z
M 13.234375 30.90625 
L 42.1875 30.90625 
Q 41.609375 37.453125 38.875 40.71875 
Q 34.671875 45.796875 27.984375 45.796875 
Q 21.921875 45.796875 17.796875 41.75 
Q 13.671875 37.703125 13.234375 30.90625 
z
" id="ArialMT-101"/>
       <path d="M 6.5 0 
L 6.5 51.859375 
L 14.40625 51.859375 
L 14.40625 44 
Q 17.4375 49.515625 20 51.265625 
Q 22.5625 53.03125 25.640625 53.03125 
Q 30.078125 53.03125 34.671875 50.203125 
L 31.640625 42.046875 
Q 28.421875 43.953125 25.203125 43.953125 
Q 22.3125 43.953125 20.015625 42.21875 
Q 17.71875 40.484375 16.75 37.40625 
Q 15.28125 32.71875 15.28125 27.15625 
L 15.28125 0 
z
" id="ArialMT-114"/>
       <path d="M 21 0 
L 1.265625 51.859375 
L 10.546875 51.859375 
L 21.6875 20.796875 
Q 23.484375 15.765625 25 10.359375 
Q 26.171875 14.453125 28.265625 20.21875 
L 39.796875 51.859375 
L 48.828125 51.859375 
L 29.203125 0 
z
" id="ArialMT-118"/>
       <path d="M 40.4375 6.390625 
Q 35.546875 2.25 31.03125 0.53125 
Q 26.515625 -1.171875 21.34375 -1.171875 
Q 12.796875 -1.171875 8.203125 3 
Q 3.609375 7.171875 3.609375 13.671875 
Q 3.609375 17.484375 5.34375 20.625 
Q 7.078125 23.78125 9.890625 25.6875 
Q 12.703125 27.59375 16.21875 28.5625 
Q 18.796875 29.25 24.03125 29.890625 
Q 34.671875 31.15625 39.703125 32.90625 
Q 39.75 34.71875 39.75 35.203125 
Q 39.75 40.578125 37.25 42.78125 
Q 33.890625 45.75 27.25 45.75 
Q 21.046875 45.75 18.09375 43.578125 
Q 15.140625 41.40625 13.71875 35.890625 
L 5.125 37.0625 
Q 6.296875 42.578125 8.984375 45.96875 
Q 11.671875 49.359375 16.75 51.1875 
Q 21.828125 53.03125 28.515625 53.03125 
Q 35.15625 53.03125 39.296875 51.46875 
Q 43.453125 49.90625 45.40625 47.53125 
Q 47.359375 45.171875 48.140625 41.546875 
Q 48.578125 39.3125 48.578125 33.453125 
L 48.578125 21.734375 
Q 48.578125 9.46875 49.140625 6.21875 
Q 49.703125 2.984375 51.375 0 
L 42.1875 0 
Q 40.828125 2.734375 40.4375 6.390625 
z
M 39.703125 26.03125 
Q 34.90625 24.078125 25.34375 22.703125 
Q 19.921875 21.921875 17.671875 20.9375 
Q 15.4375 19.96875 14.203125 18.09375 
Q 12.984375 16.21875 12.984375 13.921875 
Q 12.984375 10.40625 15.640625 8.0625 
Q 18.3125 5.71875 23.4375 5.71875 
Q 28.515625 5.71875 32.46875 7.9375 
Q 36.421875 10.15625 38.28125 14.015625 
Q 39.703125 17 39.703125 22.796875 
z
" id="ArialMT-97"/>
       <path d="M 25.78125 7.859375 
L 27.046875 0.09375 
Q 23.34375 -0.6875 20.40625 -0.6875 
Q 15.625 -0.6875 12.984375 0.828125 
Q 10.359375 2.34375 9.28125 4.8125 
Q 8.203125 7.28125 8.203125 15.1875 
L 8.203125 45.015625 
L 1.765625 45.015625 
L 1.765625 51.859375 
L 8.203125 51.859375 
L 8.203125 64.703125 
L 16.9375 69.96875 
L 16.9375 51.859375 
L 25.78125 51.859375 
L 25.78125 45.015625 
L 16.9375 45.015625 
L 16.9375 14.703125 
Q 16.9375 10.9375 17.40625 9.859375 
Q 17.875 8.796875 18.921875 8.15625 
Q 19.96875 7.515625 21.921875 7.515625 
Q 23.390625 7.515625 25.78125 7.859375 
z
" id="ArialMT-116"/>
       <path d="M 6.640625 61.46875 
L 6.640625 71.578125 
L 15.4375 71.578125 
L 15.4375 61.46875 
z
M 6.640625 0 
L 6.640625 51.859375 
L 15.4375 51.859375 
L 15.4375 0 
z
" id="ArialMT-105"/>
       <path d="M 3.328125 25.921875 
Q 3.328125 40.328125 11.328125 47.265625 
Q 18.015625 53.03125 27.640625 53.03125 
Q 38.328125 53.03125 45.109375 46.015625 
Q 51.90625 39.015625 51.90625 26.65625 
Q 51.90625 16.65625 48.90625 10.90625 
Q 45.90625 5.171875 40.15625 2 
Q 34.421875 -1.171875 27.640625 -1.171875 
Q 16.75 -1.171875 10.03125 5.8125 
Q 3.328125 12.796875 3.328125 25.921875 
z
M 12.359375 25.921875 
Q 12.359375 15.96875 16.703125 11.015625 
Q 21.046875 6.0625 27.640625 6.0625 
Q 34.1875 6.0625 38.53125 11.03125 
Q 42.875 16.015625 42.875 26.21875 
Q 42.875 35.84375 38.5 40.796875 
Q 34.125 45.75 27.640625 45.75 
Q 21.046875 45.75 16.703125 40.8125 
Q 12.359375 35.890625 12.359375 25.921875 
z
" id="ArialMT-111"/>
       <path d="M 6.59375 0 
L 6.59375 51.859375 
L 14.5 51.859375 
L 14.5 44.484375 
Q 20.21875 53.03125 31 53.03125 
Q 35.6875 53.03125 39.625 51.34375 
Q 43.5625 49.65625 45.515625 46.921875 
Q 47.46875 44.1875 48.25 40.4375 
Q 48.734375 37.984375 48.734375 31.890625 
L 48.734375 0 
L 39.9375 0 
L 39.9375 31.546875 
Q 39.9375 36.921875 38.90625 39.578125 
Q 37.890625 42.234375 35.28125 43.8125 
Q 32.671875 45.40625 29.15625 45.40625 
Q 23.53125 45.40625 19.453125 41.84375 
Q 15.375 38.28125 15.375 28.328125 
L 15.375 0 
z
" id="ArialMT-110"/>
      </defs>
      <use xlink:href="#ArialMT-79"/>
      <use x="77.783203" xlink:href="#ArialMT-98"/>
      <use x="133.398438" xlink:href="#ArialMT-115"/>
      <use x="183.398438" xlink:href="#ArialMT-101"/>
      <use x="239.013672" xlink:href="#ArialMT-114"/>
      <use x="272.314453" xlink:href="#ArialMT-118"/>
      <use x="322.314453" xlink:href="#ArialMT-97"/>
      <use x="377.929688" xlink:href="#ArialMT-116"/>
      <use x="405.712891" xlink:href="#ArialMT-105"/>
      <use x="427.929688" xlink:href="#ArialMT-111"/>
      <use x="483.544922" xlink:href="#ArialMT-110"/>
     </g>
    </g>
    <g id="line2d_23">
     <path d="M 628.536719 356.112344 
L 674.536719 356.112344 
" style="fill:none;stroke:#008000;stroke-linecap:square;stroke-width:2;"/>
    </g>
    <g id="line2d_24">
     <g>
      <use style="fill:#008000;stroke:#008000;stroke-linejoin:miter;" x="651.536719" xlink:href="#me1a3b825fd" y="356.112344"/>
     </g>
    </g>
    <g id="text_21">
     <!-- Truth -->
     <g transform="translate(692.936719 364.162344)scale(0.23 -0.23)">
      <defs>
       <path d="M 25.921875 0 
L 25.921875 63.140625 
L 2.34375 63.140625 
L 2.34375 71.578125 
L 59.078125 71.578125 
L 59.078125 63.140625 
L 35.40625 63.140625 
L 35.40625 0 
z
" id="ArialMT-84"/>
       <path d="M 40.578125 0 
L 40.578125 7.625 
Q 34.515625 -1.171875 24.125 -1.171875 
Q 19.53125 -1.171875 15.546875 0.578125 
Q 11.578125 2.34375 9.640625 5 
Q 7.71875 7.671875 6.9375 11.53125 
Q 6.390625 14.109375 6.390625 19.734375 
L 6.390625 51.859375 
L 15.1875 51.859375 
L 15.1875 23.09375 
Q 15.1875 16.21875 15.71875 13.8125 
Q 16.546875 10.359375 19.234375 8.375 
Q 21.921875 6.390625 25.875 6.390625 
Q 29.828125 6.390625 33.296875 8.421875 
Q 36.765625 10.453125 38.203125 13.9375 
Q 39.65625 17.4375 39.65625 24.078125 
L 39.65625 51.859375 
L 48.4375 51.859375 
L 48.4375 0 
z
" id="ArialMT-117"/>
       <path d="M 6.59375 0 
L 6.59375 71.578125 
L 15.375 71.578125 
L 15.375 45.90625 
Q 21.53125 53.03125 30.90625 53.03125 
Q 36.671875 53.03125 40.921875 50.75 
Q 45.171875 48.484375 47 44.484375 
Q 48.828125 40.484375 48.828125 32.859375 
L 48.828125 0 
L 40.046875 0 
L 40.046875 32.859375 
Q 40.046875 39.453125 37.1875 42.453125 
Q 34.328125 45.453125 29.109375 45.453125 
Q 25.203125 45.453125 21.75 43.421875 
Q 18.3125 41.40625 16.84375 37.9375 
Q 15.375 34.46875 15.375 28.375 
L 15.375 0 
z
" id="ArialMT-104"/>
      </defs>
      <use xlink:href="#ArialMT-84"/>
      <use x="57.333984" xlink:href="#ArialMT-114"/>
      <use x="90.634766" xlink:href="#ArialMT-117"/>
      <use x="146.25" xlink:href="#ArialMT-116"/>
      <use x="174.033203" xlink:href="#ArialMT-104"/>
     </g>
    </g>
    <g id="line2d_25">
     <path d="M 628.536719 388.646562 
L 674.536719 388.646562 
" style="fill:none;stroke:#ffa500;stroke-linecap:square;stroke-width:2;"/>
    </g>
    <g id="line2d_26">
     <g>
      <use style="fill:#ffa500;stroke:#ffa500;stroke-linejoin:miter;" x="651.536719" xlink:href="#mbbbc9a24c0" y="388.646562"/>
     </g>
    </g>
    <g id="text_22">
     <!-- Smooth -->
     <g transform="translate(692.936719 396.696562)scale(0.23 -0.23)">
      <defs>
       <path d="M 4.5 23 
L 13.421875 23.78125 
Q 14.0625 18.40625 16.375 14.96875 
Q 18.703125 11.53125 23.578125 9.40625 
Q 28.46875 7.28125 34.578125 7.28125 
Q 39.984375 7.28125 44.140625 8.890625 
Q 48.296875 10.5 50.3125 13.296875 
Q 52.34375 16.109375 52.34375 19.4375 
Q 52.34375 22.796875 50.390625 25.3125 
Q 48.4375 27.828125 43.953125 29.546875 
Q 41.0625 30.671875 31.203125 33.03125 
Q 21.34375 35.40625 17.390625 37.5 
Q 12.25 40.1875 9.734375 44.15625 
Q 7.234375 48.140625 7.234375 53.078125 
Q 7.234375 58.5 10.296875 63.203125 
Q 13.375 67.921875 19.28125 70.359375 
Q 25.203125 72.796875 32.421875 72.796875 
Q 40.375 72.796875 46.453125 70.234375 
Q 52.546875 67.671875 55.8125 62.6875 
Q 59.078125 57.71875 59.328125 51.421875 
L 50.25 50.734375 
Q 49.515625 57.515625 45.28125 60.984375 
Q 41.0625 64.453125 32.8125 64.453125 
Q 24.21875 64.453125 20.28125 61.296875 
Q 16.359375 58.15625 16.359375 53.71875 
Q 16.359375 49.859375 19.140625 47.359375 
Q 21.875 44.875 33.421875 42.265625 
Q 44.96875 39.65625 49.265625 37.703125 
Q 55.515625 34.8125 58.484375 30.390625 
Q 61.46875 25.984375 61.46875 20.21875 
Q 61.46875 14.5 58.203125 9.4375 
Q 54.9375 4.390625 48.796875 1.578125 
Q 42.671875 -1.21875 35.015625 -1.21875 
Q 25.296875 -1.21875 18.71875 1.609375 
Q 12.15625 4.4375 8.421875 10.125 
Q 4.6875 15.828125 4.5 23 
z
" id="ArialMT-83"/>
       <path d="M 6.59375 0 
L 6.59375 51.859375 
L 14.453125 51.859375 
L 14.453125 44.578125 
Q 16.890625 48.390625 20.9375 50.703125 
Q 25 53.03125 30.171875 53.03125 
Q 35.9375 53.03125 39.625 50.640625 
Q 43.3125 48.25 44.828125 43.953125 
Q 50.984375 53.03125 60.84375 53.03125 
Q 68.5625 53.03125 72.703125 48.75 
Q 76.859375 44.484375 76.859375 35.59375 
L 76.859375 0 
L 68.109375 0 
L 68.109375 32.671875 
Q 68.109375 37.9375 67.25 40.25 
Q 66.40625 42.578125 64.15625 43.984375 
Q 61.921875 45.40625 58.890625 45.40625 
Q 53.421875 45.40625 49.796875 41.765625 
Q 46.1875 38.140625 46.1875 30.125 
L 46.1875 0 
L 37.40625 0 
L 37.40625 33.6875 
Q 37.40625 39.546875 35.25 42.46875 
Q 33.109375 45.40625 28.21875 45.40625 
Q 24.515625 45.40625 21.359375 43.453125 
Q 18.21875 41.5 16.796875 37.734375 
Q 15.375 33.984375 15.375 26.90625 
L 15.375 0 
z
" id="ArialMT-109"/>
      </defs>
      <use xlink:href="#ArialMT-83"/>
      <use x="66.699219" xlink:href="#ArialMT-109"/>
      <use x="150" xlink:href="#ArialMT-111"/>
      <use x="205.615234" xlink:href="#ArialMT-111"/>
      <use x="261.230469" xlink:href="#ArialMT-116"/>
      <use x="289.013672" xlink:href="#ArialMT-104"/>
     </g>
    </g>
    <g id="line2d_27">
     <path d="M 628.536719 421.180781 
L 674.536719 421.180781 
" style="fill:none;stroke:#ff0000;stroke-linecap:square;stroke-width:2;"/>
    </g>
    <g id="line2d_28">
     <g>
      <use style="fill:#ff0000;stroke:#ff0000;stroke-linejoin:miter;" x="651.536719" xlink:href="#mbb71a496ec" y="421.180781"/>
     </g>
    </g>
    <g id="text_23">
     <!-- MTCSC -->
     <g transform="translate(692.936719 429.230781)scale(0.23 -0.23)">
      <defs>
       <path d="M 7.421875 0 
L 7.421875 71.578125 
L 21.6875 71.578125 
L 38.625 20.90625 
Q 40.96875 13.8125 42.046875 10.296875 
Q 43.265625 14.203125 45.84375 21.78125 
L 62.984375 71.578125 
L 75.734375 71.578125 
L 75.734375 0 
L 66.609375 0 
L 66.609375 59.90625 
L 45.796875 0 
L 37.25 0 
L 16.546875 60.9375 
L 16.546875 0 
z
" id="ArialMT-77"/>
       <path d="M 58.796875 25.09375 
L 68.265625 22.703125 
Q 65.28125 11.03125 57.546875 4.90625 
Q 49.8125 -1.21875 38.625 -1.21875 
Q 27.046875 -1.21875 19.796875 3.484375 
Q 12.546875 8.203125 8.765625 17.140625 
Q 4.984375 26.078125 4.984375 36.328125 
Q 4.984375 47.515625 9.25 55.828125 
Q 13.53125 64.15625 21.40625 68.46875 
Q 29.296875 72.796875 38.765625 72.796875 
Q 49.515625 72.796875 56.828125 67.328125 
Q 64.15625 61.859375 67.046875 51.953125 
L 57.71875 49.75 
Q 55.21875 57.5625 50.484375 61.125 
Q 45.75 64.703125 38.578125 64.703125 
Q 30.328125 64.703125 24.78125 60.734375 
Q 19.234375 56.78125 16.984375 50.109375 
Q 14.75 43.453125 14.75 36.375 
Q 14.75 27.25 17.40625 20.4375 
Q 20.0625 13.625 25.671875 10.25 
Q 31.296875 6.890625 37.84375 6.890625 
Q 45.796875 6.890625 51.3125 11.46875 
Q 56.84375 16.0625 58.796875 25.09375 
z
" id="ArialMT-67"/>
      </defs>
      <use xlink:href="#ArialMT-77"/>
      <use x="83.300781" xlink:href="#ArialMT-84"/>
      <use x="144.384766" xlink:href="#ArialMT-67"/>
      <use x="216.601562" xlink:href="#ArialMT-83"/>
      <use x="283.300781" xlink:href="#ArialMT-67"/>
     </g>
    </g>
    <g id="line2d_29">
     <path d="M 628.536719 453.715 
L 674.536719 453.715 
" style="fill:none;stroke:#0000ff;stroke-linecap:square;stroke-width:2;"/>
    </g>
    <g id="line2d_30">
     <g>
      <use style="fill:#0000ff;stroke:#0000ff;" x="651.536719" xlink:href="#m4e88443d8b" y="453.715"/>
     </g>
    </g>
    <g id="text_24">
     <!-- Minimum change principle -->
     <g transform="translate(692.936719 461.765)scale(0.23 -0.23)">
      <defs>
       <path id="ArialMT-32"/>
       <path d="M 40.4375 19 
L 49.078125 17.875 
Q 47.65625 8.9375 41.8125 3.875 
Q 35.984375 -1.171875 27.484375 -1.171875 
Q 16.84375 -1.171875 10.375 5.78125 
Q 3.90625 12.75 3.90625 25.734375 
Q 3.90625 34.125 6.6875 40.421875 
Q 9.46875 46.734375 15.15625 49.875 
Q 20.84375 53.03125 27.546875 53.03125 
Q 35.984375 53.03125 41.359375 48.75 
Q 46.734375 44.484375 48.25 36.625 
L 39.703125 35.296875 
Q 38.484375 40.53125 35.375 43.15625 
Q 32.28125 45.796875 27.875 45.796875 
Q 21.234375 45.796875 17.078125 41.03125 
Q 12.9375 36.28125 12.9375 25.984375 
Q 12.9375 15.53125 16.9375 10.796875 
Q 20.953125 6.0625 27.390625 6.0625 
Q 32.5625 6.0625 36.03125 9.234375 
Q 39.5 12.40625 40.4375 19 
z
" id="ArialMT-99"/>
       <path d="M 4.984375 -4.296875 
L 13.53125 -5.5625 
Q 14.0625 -9.515625 16.5 -11.328125 
Q 19.78125 -13.765625 25.4375 -13.765625 
Q 31.546875 -13.765625 34.859375 -11.328125 
Q 38.1875 -8.890625 39.359375 -4.5 
Q 40.046875 -1.8125 39.984375 6.78125 
Q 34.234375 0 25.640625 0 
Q 14.9375 0 9.078125 7.71875 
Q 3.21875 15.4375 3.21875 26.21875 
Q 3.21875 33.640625 5.90625 39.90625 
Q 8.59375 46.1875 13.6875 49.609375 
Q 18.796875 53.03125 25.6875 53.03125 
Q 34.859375 53.03125 40.828125 45.609375 
L 40.828125 51.859375 
L 48.921875 51.859375 
L 48.921875 7.03125 
Q 48.921875 -5.078125 46.453125 -10.125 
Q 44 -15.1875 38.640625 -18.109375 
Q 33.296875 -21.046875 25.484375 -21.046875 
Q 16.21875 -21.046875 10.5 -16.875 
Q 4.78125 -12.703125 4.984375 -4.296875 
z
M 12.25 26.859375 
Q 12.25 16.65625 16.296875 11.96875 
Q 20.359375 7.28125 26.46875 7.28125 
Q 32.515625 7.28125 36.609375 11.9375 
Q 40.71875 16.609375 40.71875 26.5625 
Q 40.71875 36.078125 36.5 40.90625 
Q 32.28125 45.75 26.3125 45.75 
Q 20.453125 45.75 16.34375 40.984375 
Q 12.25 36.234375 12.25 26.859375 
z
" id="ArialMT-103"/>
       <path d="M 6.59375 -19.875 
L 6.59375 51.859375 
L 14.59375 51.859375 
L 14.59375 45.125 
Q 17.4375 49.078125 21 51.046875 
Q 24.5625 53.03125 29.640625 53.03125 
Q 36.28125 53.03125 41.359375 49.609375 
Q 46.4375 46.1875 49.015625 39.953125 
Q 51.609375 33.734375 51.609375 26.3125 
Q 51.609375 18.359375 48.75 11.984375 
Q 45.90625 5.609375 40.453125 2.21875 
Q 35.015625 -1.171875 29 -1.171875 
Q 24.609375 -1.171875 21.109375 0.6875 
Q 17.625 2.546875 15.375 5.375 
L 15.375 -19.875 
z
M 14.546875 25.640625 
Q 14.546875 15.625 18.59375 10.84375 
Q 22.65625 6.0625 28.421875 6.0625 
Q 34.28125 6.0625 38.453125 11.015625 
Q 42.625 15.96875 42.625 26.375 
Q 42.625 36.28125 38.546875 41.203125 
Q 34.46875 46.140625 28.8125 46.140625 
Q 23.1875 46.140625 18.859375 40.890625 
Q 14.546875 35.640625 14.546875 25.640625 
z
" id="ArialMT-112"/>
       <path d="M 6.390625 0 
L 6.390625 71.578125 
L 15.1875 71.578125 
L 15.1875 0 
z
" id="ArialMT-108"/>
      </defs>
      <use xlink:href="#ArialMT-77"/>
      <use x="83.300781" xlink:href="#ArialMT-105"/>
      <use x="105.517578" xlink:href="#ArialMT-110"/>
      <use x="161.132812" xlink:href="#ArialMT-105"/>
      <use x="183.349609" xlink:href="#ArialMT-109"/>
      <use x="266.650391" xlink:href="#ArialMT-117"/>
      <use x="322.265625" xlink:href="#ArialMT-109"/>
      <use x="405.566406" xlink:href="#ArialMT-32"/>
      <use x="433.349609" xlink:href="#ArialMT-99"/>
      <use x="483.349609" xlink:href="#ArialMT-104"/>
      <use x="538.964844" xlink:href="#ArialMT-97"/>
      <use x="594.580078" xlink:href="#ArialMT-110"/>
      <use x="650.195312" xlink:href="#ArialMT-103"/>
      <use x="705.810547" xlink:href="#ArialMT-101"/>
      <use x="761.425781" xlink:href="#ArialMT-32"/>
      <use x="789.208984" xlink:href="#ArialMT-112"/>
      <use x="844.824219" xlink:href="#ArialMT-114"/>
      <use x="878.125" xlink:href="#ArialMT-105"/>
      <use x="900.341797" xlink:href="#ArialMT-110"/>
      <use x="955.957031" xlink:href="#ArialMT-99"/>
      <use x="1005.957031" xlink:href="#ArialMT-105"/>
      <use x="1028.173828" xlink:href="#ArialMT-112"/>
      <use x="1083.789062" xlink:href="#ArialMT-108"/>
      <use x="1106.005859" xlink:href="#ArialMT-101"/>
     </g>
    </g>
    <g id="line2d_31">
     <path d="M 628.536719 486.51875 
L 674.536719 486.51875 
" style="fill:none;stroke:#800080;stroke-linecap:square;stroke-width:2;"/>
    </g>
    <g id="line2d_32">
     <g>
      <use style="fill:#800080;stroke:#800080;stroke-linejoin:miter;" x="651.536719" xlink:href="#mf060f4b829" y="486.51875"/>
     </g>
    </g>
    <g id="text_25">
     <!-- SCREEN -->
     <g transform="translate(692.936719 494.56875)scale(0.23 -0.23)">
      <defs>
       <path d="M 7.859375 0 
L 7.859375 71.578125 
L 39.59375 71.578125 
Q 49.171875 71.578125 54.140625 69.640625 
Q 59.125 67.71875 62.109375 62.828125 
Q 65.09375 57.953125 65.09375 52.046875 
Q 65.09375 44.4375 60.15625 39.203125 
Q 55.21875 33.984375 44.921875 32.5625 
Q 48.6875 30.765625 50.640625 29 
Q 54.78125 25.203125 58.5 19.484375 
L 70.953125 0 
L 59.03125 0 
L 49.5625 14.890625 
Q 45.40625 21.34375 42.71875 24.75 
Q 40.046875 28.171875 37.921875 29.53125 
Q 35.796875 30.90625 33.59375 31.453125 
Q 31.984375 31.78125 28.328125 31.78125 
L 17.328125 31.78125 
L 17.328125 0 
z
M 17.328125 39.984375 
L 37.703125 39.984375 
Q 44.1875 39.984375 47.84375 41.328125 
Q 51.515625 42.671875 53.421875 45.625 
Q 55.328125 48.578125 55.328125 52.046875 
Q 55.328125 57.125 51.640625 60.390625 
Q 47.953125 63.671875 39.984375 63.671875 
L 17.328125 63.671875 
z
" id="ArialMT-82"/>
       <path d="M 7.90625 0 
L 7.90625 71.578125 
L 59.671875 71.578125 
L 59.671875 63.140625 
L 17.390625 63.140625 
L 17.390625 41.21875 
L 56.984375 41.21875 
L 56.984375 32.8125 
L 17.390625 32.8125 
L 17.390625 8.453125 
L 61.328125 8.453125 
L 61.328125 0 
z
" id="ArialMT-69"/>
       <path d="M 7.625 0 
L 7.625 71.578125 
L 17.328125 71.578125 
L 54.9375 15.375 
L 54.9375 71.578125 
L 64.015625 71.578125 
L 64.015625 0 
L 54.296875 0 
L 16.703125 56.25 
L 16.703125 0 
z
" id="ArialMT-78"/>
      </defs>
      <use xlink:href="#ArialMT-83"/>
      <use x="66.699219" xlink:href="#ArialMT-67"/>
      <use x="138.916016" xlink:href="#ArialMT-82"/>
      <use x="211.132812" xlink:href="#ArialMT-69"/>
      <use x="277.832031" xlink:href="#ArialMT-69"/>
      <use x="344.53125" xlink:href="#ArialMT-78"/>
     </g>
    </g>
   </g>
  </g>
 </g>
 <defs>
  <clipPath id="pb68421e170">
   <rect height="512.64" width="917.28" x="63.5125" y="7.2"/>
  </clipPath>
 </defs>
</svg>
